<svg xmlns="http://www.w3.org/2000/svg" width="40" height="40" fill="none" viewBox="0 0 40 40">
  <path fill="#000" d="M10.107 35.833a2.51 2.51 0 0 1-1.84-.766 2.51 2.51 0 0 1-.767-1.84V13.44c0-.716.255-1.33.766-1.84a2.51 2.51 0 0 1 1.841-.767h3.846v-.62c0-1.685.586-3.114 1.76-4.287 1.173-1.173 2.602-1.76 4.287-1.76s3.114.587 4.288 1.76c1.173 1.173 1.76 2.602 1.76 4.288v.62h3.845c.716 0 1.33.255 1.84.766.512.51.767 1.124.767 1.84v19.786a2.51 2.51 0 0 1-.766 1.841 2.51 2.51 0 0 1-1.841.766H10.107Zm0-2.094h19.786a.491.491 0 0 0 .353-.16.491.491 0 0 0 .16-.353V13.44a.491.491 0 0 0-.16-.352.491.491 0 0 0-.353-.16h-3.846v3.952c0 .298-.1.546-.302.747-.201.2-.451.3-.75.3s-.547-.1-.745-.3a1.02 1.02 0 0 1-.297-.747v-3.952h-7.906v3.952c0 .298-.1.546-.302.747-.201.2-.451.3-.75.3s-.547-.1-.745-.3a1.02 1.02 0 0 1-.297-.747v-3.952h-3.846a.491.491 0 0 0-.353.16.491.491 0 0 0-.16.352v19.786c0 .129.054.246.16.353a.49.49 0 0 0 .353.16Zm5.94-22.906h7.906v-.62c0-1.108-.382-2.044-1.145-2.808-.763-.763-1.7-1.144-2.808-1.144-1.109 0-2.045.381-2.808 1.144-.763.764-1.145 1.7-1.145 2.809v.62Z"/>
</svg>
