<svg xmlns="http://www.w3.org/2000/svg" width="184" height="68" fill="none" viewBox="0 0 184 68">
  <path fill="#008F8C" d="M114.343 20.168a.68.68 0 0 0-.282-.197c-.803-.313-1.66-.56-2.546-.734-.359-.071-.727.142-.806.498a.662.662 0 0 0 .519.794c.563.11 1.113.252 1.641.423-1.838 2.997-4.99 5.477-8.765 6.871-2.71 1-5.539 1.366-8.157 1.092 3.518-1.022 6.948-3.076 9.798-5.925 3.922-3.922 6.337-8.943 6.629-13.78a.692.692 0 0 0-.092-.401.663.663 0 0 0-.607-.319c-2.515.15-5.08.874-7.516 2.085.164-2.267-.038-4.495-.595-6.504a.663.663 0 0 0-.894-.452c-2.192.901-4.307 2.325-6.166 4.144-.864-2.875-2.255-5.456-4.091-7.528A.663.663 0 0 0 91.41.222c-1.837 2.07-3.232 4.666-4.098 7.545-1.856-1.816-3.966-3.239-6.155-4.14a.663.663 0 0 0-.905.428c-.56 2.013-.764 4.247-.6 6.52-2.436-1.21-5.001-1.936-7.516-2.084a.663.663 0 0 0-.699.715c.29 4.838 2.707 9.861 6.63 13.784 2.85 2.85 6.28 4.903 9.798 5.926-2.618.273-5.448-.092-8.158-1.093-3.775-1.394-6.927-3.874-8.765-6.871a14.063 14.063 0 0 1 1.62-.418c.352-.07.605-.403.548-.758a.662.662 0 0 0-.78-.545 15.08 15.08 0 0 0-2.58.74.663.663 0 0 0-.36.935c1.913 3.578 5.506 6.552 9.859 8.16 2.275.84 4.635 1.26 6.91 1.26 1.555 0 3.07-.197 4.49-.593a4.414 4.414 0 0 1 1.183-.166h.146c.4 0 .797.06 1.183.166a16.77 16.77 0 0 0 4.49.594c2.275 0 4.635-.422 6.91-1.262 4.353-1.607 7.946-4.58 9.859-8.158a.664.664 0 0 0-.078-.74ZM81.341 5.152c1.997.938 3.91 2.343 5.578 4.1a24.767 24.767 0 0 0-.617 6.24 24.424 24.424 0 0 0-5.25-4.16c-.244-2.138-.145-4.254.29-6.18Zm-2.337 16.9c-3.494-3.493-5.717-7.89-6.181-12.177 4.286.464 8.684 2.688 12.178 6.18 3.493 3.494 5.716 7.892 6.18 12.179-4.286-.464-8.684-2.688-12.177-6.181Zm12.902 3.023c-.784-2.785-2.215-5.519-4.178-7.959a24.157 24.157 0 0 1-.112-2.306c0-4.995 1.556-9.73 4.29-13.125 2.414 2.992 3.908 6.996 4.227 11.37a.662.662 0 0 0 1.32-.097 24.56 24.56 0 0 0-.555-3.71c1.668-1.755 3.579-3.159 5.573-4.096.435 1.926.534 4.042.289 6.18a24.426 24.426 0 0 0-4.884 3.788c-2.892 2.892-4.963 6.382-5.97 9.955Zm.725 3.159c.464-4.287 2.688-8.685 6.181-12.178 3.493-3.493 7.891-5.717 12.178-6.181-.464 4.286-2.688 8.685-6.181 12.178-3.493 3.493-7.891 5.717-12.178 6.18Z"/>
  <path fill="#023535" d="M29.343 58.523a9.617 9.617 0 0 1-3.736-.733c-1.173-.464-2.125-1.184-2.858-2.161-.708-.977-1.063-2.198-1.063-3.664 0-1.27.245-2.26.733-2.968.513-.708 1.136-1.209 1.869-1.502.732-.293 1.428-.44 2.088-.44a7.526 7.526 0 0 0-1.502 2.346 6.861 6.861 0 0 0-.513 2.564c0 .904.195 1.746.586 2.528.415.782 1.038 1.404 1.869 1.868.83.489 1.88.733 3.15.733 1.1 0 2.174-.207 3.224-.623 1.05-.39 1.906-.977 2.565-1.758.684-.806 1.026-1.795 1.026-2.968 0-1.05-.269-1.954-.806-2.71-.538-.758-1.234-1.43-2.089-2.016a31.338 31.338 0 0 0-2.674-1.685 36.472 36.472 0 0 1-2.711-1.686 8.741 8.741 0 0 1-2.052-2.088c-.537-.781-.806-1.722-.806-2.82 0-1.027.244-2.101.733-3.225.488-1.123 1.184-2.186 2.088-3.187a10.872 10.872 0 0 1 3.298-2.418c1.294-.635 2.735-.953 4.323-.953 1.44 0 2.442.354 3.004 1.063.562.683.843 1.55.843 2.6 0 .88-.16 1.833-.477 2.858a19.634 19.634 0 0 1-1.099 2.895 27.25 27.25 0 0 1-1.245 2.308c-.44-.098-.758-.28-.953-.55a1.999 1.999 0 0 1-.257-1.025c0-.513.11-1.1.33-1.759.22-.66.464-1.343.733-2.052.293-.708.55-1.392.77-2.051.22-.684.33-1.295.33-1.832 0-.489-.148-.867-.44-1.136-.294-.293-.831-.44-1.613-.44a6.52 6.52 0 0 0-3.187.806 9.18 9.18 0 0 0-2.565 2.089 10.42 10.42 0 0 0-1.721 2.638c-.391.928-.587 1.77-.587 2.528 0 .903.257 1.685.77 2.344.537.635 1.22 1.221 2.051 1.759.83.513 1.71 1.038 2.638 1.575a20.015 20.015 0 0 1 2.675 1.722A7.765 7.765 0 0 1 38.1 47.57c.537.854.806 1.905.806 3.15 0 1.27-.281 2.394-.843 3.371a7.647 7.647 0 0 1-2.271 2.418c-.928.66-1.954 1.16-3.078 1.502a11.522 11.522 0 0 1-3.37.513Zm16.162-1.575c-1.49 0-2.613-.416-3.37-1.246-.733-.806-1.1-1.807-1.1-3.004 0-1.1.27-2.26.807-3.48a15.225 15.225 0 0 1 2.198-3.445c.928-1.074 1.941-1.941 3.04-2.6 1.1-.685 2.187-1.027 3.261-1.027.562 0 1.075.147 1.539.44.488.293.733.892.733 1.795 0 .928-.281 1.808-.843 2.638-.537.806-1.258 1.527-2.162 2.162a12.943 12.943 0 0 1-2.93 1.575c-1.05.39-2.1.635-3.151.733a8.153 8.153 0 0 0-.11.696 5.516 5.516 0 0 0 .073 1.722c.098.366.257.708.477 1.026.22.293.512.525.879.696.39.17.867.256 1.429.256 1.05 0 2.088-.293 3.114-.88 1.025-.61 1.978-1.404 2.857-2.38a15.507 15.507 0 0 0 2.235-3.224l.44.33c-.66 1.465-1.502 2.735-2.528 3.81-1.002 1.074-2.1 1.905-3.297 2.49-1.173.611-2.37.917-3.59.917Zm-1.795-6.155c.66-.22 1.404-.538 2.235-.953.83-.44 1.624-.952 2.381-1.539.782-.586 1.417-1.233 1.905-1.941.513-.709.77-1.454.77-2.235 0-.269-.05-.477-.147-.623-.097-.147-.305-.22-.623-.22-.586 0-1.209.232-1.868.696-.66.44-1.295 1.026-1.905 1.759a15.7 15.7 0 0 0-1.649 2.418c-.488.88-.855 1.758-1.099 2.638Zm16.377 5.495c-.83 0-1.49-.22-1.979-.66-.463-.439-.696-1.013-.696-1.721 0-.733.171-1.502.513-2.308.342-.806.672-1.6.99-2.382.342-.806.513-1.526.513-2.161 0-.782-.233-1.356-.697-1.722-.44-.391-.891-.745-1.355-1.063a64.766 64.766 0 0 1-1.759 4.104c-.61 1.294-1.111 2.271-1.502 2.93l-.33-.622c.342-.635.782-1.563 1.32-2.785a45.235 45.235 0 0 0 1.648-4.176 1.199 1.199 0 0 1-.366-.88c0-.732.207-1.33.622-1.795.416-.464.72-.696.916-.696.269 0 .416.122.44.367.049.22.073.39.073.512 0 .123-.073.367-.22.733-.122.342-.183.55-.183.623 0 .342.183.66.55.953.39.268.83.586 1.319.952.488.342.916.77 1.282 1.282.39.489.586 1.124.586 1.906 0 .732-.159 1.477-.476 2.234a35.975 35.975 0 0 1-.916 2.162c-.293.684-.44 1.282-.44 1.795 0 .44.11.733.33.88.22.146.476.22.77.22.586 0 1.184-.184 1.795-.55a9.557 9.557 0 0 0 1.831-1.392 15.056 15.056 0 0 0 1.576-1.759c.464-.635.806-1.221 1.026-1.759l.476.367c-.464 1.026-1.1 2.04-1.905 3.04a11.489 11.489 0 0 1-2.711 2.419c-.977.635-1.99.952-3.041.952Zm10.355.66c-1.49 0-2.613-.416-3.37-1.246-.733-.806-1.1-1.807-1.1-3.004 0-1.1.27-2.26.807-3.48a15.218 15.218 0 0 1 2.198-3.445c.928-1.074 1.942-1.941 3.04-2.6 1.1-.685 2.187-1.027 3.262-1.027.561 0 1.074.147 1.538.44.489.293.733.892.733 1.795 0 .928-.28 1.808-.843 2.638-.537.806-1.257 1.527-2.161 2.162a12.95 12.95 0 0 1-2.931 1.575c-1.05.39-2.1.635-3.15.733a8.193 8.193 0 0 0-.11.696 5.516 5.516 0 0 0 .073 1.722c.097.366.256.708.476 1.026.22.293.513.525.88.696.39.17.866.256 1.428.256 1.05 0 2.088-.293 3.114-.88 1.026-.61 1.978-1.404 2.858-2.38a15.503 15.503 0 0 0 2.234-3.224l.44.33c-.66 1.465-1.502 2.735-2.528 3.81-1.001 1.074-2.1 1.905-3.297 2.49-1.172.611-2.37.917-3.59.917Zm-1.795-6.155c.66-.22 1.405-.538 2.235-.953.83-.44 1.624-.952 2.382-1.539.781-.586 1.416-1.233 1.905-1.941.513-.709.769-1.454.769-2.235 0-.269-.049-.477-.147-.623-.097-.147-.305-.22-.622-.22-.587 0-1.21.232-1.869.696-.66.44-1.294 1.026-1.905 1.759a15.7 15.7 0 0 0-1.649 2.418 12.17 12.17 0 0 0-1.099 2.638Zm21.873 5.275c-.855 0-1.502-.22-1.942-.66-.415-.439-.623-1-.623-1.684 0-.513.086-1.05.257-1.612.195-.562.378-1.136.55-1.722.17-.61.256-1.197.256-1.759 0-.684-.147-1.148-.44-1.392-.269-.269-.61-.403-1.026-.403-.757 0-1.526.318-2.308.953-.781.61-1.539 1.404-2.271 2.38a35.58 35.58 0 0 0-2.052 2.969 346.37 346.37 0 0 0-1.685 2.747c-.391 0-.758-.073-1.1-.22-.366-.122-.647-.317-.842-.586 0-.122.134-.5.403-1.136.244-.635.537-1.416.88-2.344.341-.928.646-1.881.915-2.858.269-.977.403-1.868.403-2.674.147-.171.379-.342.696-.513a2.06 2.06 0 0 1 .99-.257c.659 0 .989.318.989.953 0 .39-.11 1.05-.33 1.978-.22.904-.5 1.856-.843 2.858a34.396 34.396 0 0 1 2.198-2.968c.83-1.001 1.71-1.832 2.638-2.491.928-.66 1.856-.99 2.785-.99.952 0 1.636.343 2.051 1.027.44.683.66 1.44.66 2.271 0 .757-.122 1.465-.367 2.125-.244.635-.5 1.258-.769 1.868a4.628 4.628 0 0 0-.366 1.796c0 .513.097.879.293 1.099.22.195.488.293.806.293.61 0 1.221-.281 1.832-.843.61-.586 1.196-1.319 1.758-2.198.586-.88 1.1-1.77 1.539-2.675l.403.477a18.624 18.624 0 0 1-1.722 3.187c-.635.928-1.331 1.661-2.088 2.198-.758.538-1.6.806-2.528.806Zm7.394.367c-.415 0-.843-.11-1.282-.33-.416-.195-.758-.525-1.026-.99-.293-.463-.44-1.05-.44-1.758 0-.806.195-1.71.586-2.71a15.17 15.17 0 0 1 1.576-2.968 16.376 16.376 0 0 1 2.271-2.748c.855-.855 1.746-1.527 2.675-2.015.928-.513 1.844-.77 2.747-.77.513 0 .904.098 1.173.294.293.17.439.451.439.842a.825.825 0 0 1-.036.257c0 .073-.012.158-.037.256a.937.937 0 0 0-.549-.403c-.22-.098-.501-.147-.843-.147-.782 0-1.551.245-2.308.733-.733.464-1.417 1.087-2.052 1.869a15.18 15.18 0 0 0-1.612 2.454c-.464.88-.83 1.734-1.099 2.565-.244.806-.366 1.49-.366 2.052 0 .537.122.964.366 1.282.244.317.562.476.953.476.659 0 1.453-.415 2.381-1.245.952-.83 1.917-2.003 2.894-3.518.977-1.514 1.857-3.285 2.638-5.312a1195.95 1195.95 0 0 1 1.649-4.323c.586-1.465 1.172-2.87 1.758-4.213a58.84 58.84 0 0 1 1.686-3.627c.561-1.075 1.086-1.918 1.575-2.528.513-.635.965-.953 1.356-.953.195 0 .366.086.512.257.147.146.22.342.22.586 0 .39-.207 1.062-.623 2.015-.39.928-.915 2.052-1.575 3.37a190.452 190.452 0 0 0-2.015 4.25 137.387 137.387 0 0 0-2.052 4.69 44.892 44.892 0 0 0-1.575 4.616c-.391 1.465-.586 2.809-.586 4.03 0 .684.036 1.197.11 1.539.073.342.317.513.732.513.513 0 1.112-.22 1.796-.66.684-.44 1.367-1.062 2.051-1.868.684-.806 1.283-1.771 1.796-2.895l.439.33a12.033 12.033 0 0 1-1.905 3.37c-.806.978-1.673 1.747-2.601 2.309-.904.586-1.771.88-2.601.88-.904 0-1.539-.306-1.905-.917a3.585 3.585 0 0 1-.513-1.831c0-.416.061-.965.183-1.65a28.49 28.49 0 0 1 .513-2.27 28.032 28.032 0 0 1-2.492 3.517c-.879 1.025-1.746 1.831-2.601 2.418-.83.586-1.624.879-2.381.879Zm17.793-.147c-.953 0-1.661-.305-2.125-.916-.464-.586-.696-1.306-.696-2.161 0-.562.097-1.27.293-2.125.22-.855.5-1.747.842-2.675.342-.952.733-1.844 1.173-2.674.464-.83.952-1.502 1.465-2.015.513-.538 1.014-.806 1.502-.806.22 0 .403.073.55.22.171.122.256.317.256.586 0 .293-.195.77-.586 1.429a78.42 78.42 0 0 1-1.319 2.271 19.955 19.955 0 0 0-1.355 2.711c-.367.928-.55 1.82-.55 2.675 0 .879.147 1.465.44 1.758.293.293.745.44 1.355.44.831 0 1.71-.415 2.638-1.246.953-.83 1.954-2.283 3.004-4.36l.33.367c-.708 2.1-1.734 3.712-3.077 4.836-1.319 1.123-2.699 1.685-4.14 1.685Zm4.396-16.78c-.391 0-.745-.097-1.062-.293-.293-.195-.44-.5-.44-.915 0-.513.293-.953.879-1.32.611-.39 1.209-.585 1.795-.585.367 0 .66.085.88.256.22.17.329.464.329.88 0 .463-.256.915-.769 1.355-.488.415-1.026.623-1.612.623Zm-.505 26.086c-.195 0-.379-.11-.55-.33a1.946 1.946 0 0 1-.439-.66c-.098-.22-.147-.353-.147-.402a51.406 51.406 0 0 1 1.026-3.224l.989-2.895c.318-.977.635-2.124.953-3.443.317-1.344.647-3.005.989-4.983.342-1.978.684-4.433 1.026-7.364.024-.22.073-.379.146-.476.074-.098.257-.147.55-.147.635 0 1.087.183 1.355.55.269.342.403.72.403 1.135 0 .342-.073.953-.219 1.832-.147.88-.355 1.918-.623 3.114.415-.806.928-1.624 1.539-2.454a9.705 9.705 0 0 1 2.161-2.089 4.517 4.517 0 0 1 2.638-.842c1.075 0 1.954.39 2.638 1.172.708.757 1.062 1.759 1.062 3.004 0 .953-.22 1.967-.659 3.041a11.284 11.284 0 0 1-1.795 3.005 9.35 9.35 0 0 1-2.712 2.27c-1.05.587-2.21.88-3.48.88-.635 0-1.148-.073-1.539-.22-.391-.146-.586-.293-.586-.44 0-.097.086-.158.257-.182h.659a5.87 5.87 0 0 0 2.784-.697 9.053 9.053 0 0 0 2.418-1.905 8.848 8.848 0 0 0 1.649-2.6c.415-.953.623-1.894.623-2.822 0-.781-.171-1.44-.513-1.978-.318-.562-.843-.843-1.575-.843-.635 0-1.271.208-1.906.623-.61.39-1.196.904-1.758 1.539a16.252 16.252 0 0 0-1.466 1.941c-.415.66-.732 1.258-.952 1.796-.44 1.831-.879 3.59-1.319 5.275a113.23 113.23 0 0 1-1.282 4.617c-.391 1.392-.745 2.527-1.063 3.407-.342.879-.623 1.416-.842 1.612a.602.602 0 0 1-.44.183Zm19.257-9.306c-.952 0-1.661-.305-2.125-.916-.464-.586-.696-1.306-.696-2.161 0-.562.098-1.27.293-2.125.22-.855.501-1.747.843-2.675.342-.952.733-1.844 1.172-2.674.464-.83.953-1.502 1.466-2.015.513-.538 1.013-.806 1.502-.806.22 0 .403.073.549.22.171.122.257.317.257.586 0 .293-.196.77-.586 1.429-.367.66-.806 1.416-1.319 2.271a20.076 20.076 0 0 0-1.356 2.711c-.366.928-.549 1.82-.549 2.675 0 .879.146 1.465.439 1.758.293.293.745.44 1.356.44.83 0 1.709-.415 2.638-1.246.952-.83 1.954-2.283 3.004-4.36l.33.367c-.709 2.1-1.735 3.712-3.078 4.836-1.319 1.123-2.699 1.685-4.14 1.685Zm4.397-16.78a1.99 1.99 0 0 1-1.063-.293c-.293-.195-.44-.5-.44-.915 0-.513.294-.953.88-1.32.61-.39 1.209-.585 1.795-.585.366 0 .659.085.879.256.22.17.33.464.33.88 0 .463-.257.915-.769 1.355-.489.415-1.026.623-1.612.623Zm3.561 17.55c-.757 0-1.392-.257-1.905-.77-.537-.488-.806-1.245-.806-2.271 0-.88.195-1.82.586-2.821a13.823 13.823 0 0 1 1.612-3.005 16.498 16.498 0 0 1 2.308-2.71c.88-.831 1.795-1.49 2.748-1.979.977-.489 1.942-.733 2.894-.733.953 0 1.747.257 2.382.77.635.488.952 1.148.952 1.978 0 .61-.171 1.026-.513 1.246-.317.22-.745.33-1.282.33.049-.196.086-.404.11-.623.049-.245.073-.465.073-.66 0-.562-.134-1.038-.403-1.429-.268-.415-.733-.623-1.392-.623-.684 0-1.38.245-2.088.733-.709.464-1.392 1.1-2.052 1.905a15.892 15.892 0 0 0-1.759 2.565 15.857 15.857 0 0 0-1.209 2.748c-.293.903-.439 1.71-.439 2.418 0 .952.33 1.428.989 1.428.562 0 1.172-.256 1.832-.769.659-.537 1.331-1.209 2.015-2.015.708-.83 1.38-1.685 2.015-2.565a78.494 78.494 0 0 0 1.685-2.418c.098-.146.159-.22.183-.22.147.025.33.074.55.147.244.073.452.171.623.293a.56.56 0 0 1 .256.477c0 .22-.11.525-.33.916a39.23 39.23 0 0 0-.732 1.282 16.94 16.94 0 0 0-.733 1.502c-.22.488-.33.953-.33 1.392 0 .367.098.733.293 1.1.196.341.513.512.953.512.659 0 1.526-.476 2.601-1.429 1.075-.977 2.162-2.43 3.261-4.36l.366.367c-.513 1.319-1.172 2.479-1.978 3.48-.806 1.002-1.673 1.783-2.601 2.345-.904.562-1.796.843-2.675.843-.904 0-1.575-.269-2.015-.806-.415-.538-.623-1.124-.623-1.759 0-.146.012-.305.037-.476l.073-.586c-1.05 1.416-2.015 2.479-2.894 3.187-.855.708-1.734 1.063-2.638 1.063Z"/>
</svg>
